<svg class="absolute top-0 bottom-0 left-0 right-0 m-auto opacity-0 ease duration-150 mute-icon" fill="currentColor" height="20" viewBox="0 0 20 20" width="20" xmlns="http://www.w3.org/2000/svg"> <!--?lit$013977645$--><!--?lit$013977645$--><path d="M11 1.285v17.43a1.131 1.131 0 01-.642 1.033 1.081 1.081 0 01-1.153-.14l-5.39-4.663H2.108A1.125 1.125 0 011 13.807V6.193a1.125 1.125 0 011.108-1.138h1.707L9.19.405a1.09 1.09 0 011.168-.153A1.129 1.129 0 0111 1.285zm8.607 5.922l-1.414-1.414L15.9 8.086l-2.293-2.293-1.414 1.414L14.486 9.5l-2.293 2.293 1.414 1.414 2.293-2.293 2.293 2.293 1.414-1.414L17.314 9.5l2.293-2.293z"></path><!--?--> </svg>