<svg  class="absolute top-0 bottom-0 left-0 right-0 m-auto opacity-0 ease duration-150 pause-icon" fill="currentColor" height="20" viewBox="0 0 20 20" width="20" xmlns="http://www.w3.org/2000/svg"> <!--?lit$013977645$--><!--?lit$013977645$--><path d="M6.875 19h-3.75A1.127 1.127 0 0 1 2 17.875V2.125A1.127 1.127 0 0 1 3.125 1h3.75A1.127 1.127 0 0 1 8 2.125v15.75A1.127 1.127 0 0 1 6.875 19Zm10 0h-3.75A1.127 1.127 0 0 1 12 17.875V2.125A1.127 1.127 0 0 1 13.125 1h3.75A1.127 1.127 0 0 1 18 2.125v15.75A1.127 1.127 0 0 1 16.875 19Z"></path><!--?--> </svg>