<svg  class="absolute top-0 bottom-0 left-0 right-0 m-auto opacity-0 ease duration-150 unmute-icon" fill="currentColor" height="20"  viewBox="0 0 20 20" width="20" xmlns="http://www.w3.org/2000/svg"> <!--?lit$013977645$--><!--?lit$013977645$--><path d="M13 13.5v-2a1.5 1.5 0 1 0 0-3v-2a3.5 3.5 0 1 1 0 7ZM13 3v2a5 5 0 1 1 0 10v2a7 7 0 1 0 0-14ZM10.357.252A1.091 1.091 0 0 0 9.19.405l-5.374 4.65H2.108A1.125 1.125 0 0 0 1 6.193v7.614a1.125 1.125 0 0 0 1.108 1.138h1.707l5.39 4.663a1.081 1.081 0 0 0 1.153.14A1.131 1.131 0 0 0 11 18.715V1.285a1.13 1.13 0 0 0-.643-1.033Z"></path><!--?--> </svg>